<?xml version="1.0" standalone="no"?>
<!DOCTYPE svg PUBLIC "-//W3C//DTD SVG 1.1//EN" "http://www.w3.org/Graphics/SVG/1.1/DTD/svg11.dtd" >
<svg xmlns="http://www.w3.org/2000/svg">
<metadata>
Created by FontForge 20120731 at Fri Aug 19 13:18:44 2016
 By admin
</metadata>
<defs>
<font id="iconfont" horiz-adv-x="1024" >
  <font-face 
    font-family="iconfont"
    font-weight="500"
    font-stretch="normal"
    units-per-em="1024"
    panose-1="2 0 6 3 0 0 0 0 0 0"
    ascent="896"
    descent="-128"
    x-height="792"
    bbox="0 -202 1025 896"
    underline-thickness="50"
    underline-position="-100"
    unicode-range="U+0078-E870"
  />
<missing-glyph horiz-adv-x="374" 
d="M34 0v682h272v-682h-272zM68 34h204v614h-204v-614z" />
    <glyph glyph-name=".notdef" horiz-adv-x="374" 
d="M34 0v682h272v-682h-272zM68 34h204v614h-204v-614z" />
    <glyph glyph-name=".null" horiz-adv-x="0" 
 />
    <glyph glyph-name="nonmarkingreturn" horiz-adv-x="341" 
 />
    <glyph glyph-name="x" unicode="x" horiz-adv-x="1001" 
d="M281 543q-27 -1 -53 -1h-83q-18 0 -36.5 -6t-32.5 -18.5t-23 -32t-9 -45.5v-76h912v41q0 16 -0.5 30t-0.5 18q0 13 -5 29t-17 29.5t-31.5 22.5t-49.5 9h-133v-97h-438v97zM955 310v-52q0 -23 0.5 -52t0.5 -58t-10.5 -47.5t-26 -30t-33 -16t-31.5 -4.5q-14 -1 -29.5 -0.5
t-29.5 0.5h-32l-45 128h-439l-44 -128h-29h-34q-20 0 -45 1q-25 0 -41 9.5t-25.5 23t-13.5 29.5t-4 30v167h911zM163 247q-12 0 -21 -8.5t-9 -21.5t9 -21.5t21 -8.5q13 0 22 8.5t9 21.5t-9 21.5t-22 8.5zM316 123q-8 -26 -14 -48q-5 -19 -10.5 -37t-7.5 -25t-3 -15t1 -14.5
t9.5 -10.5t21.5 -4h37h67h81h80h64h36q23 0 34 12t2 38q-5 13 -9.5 30.5t-9.5 34.5q-5 19 -11 39h-368zM336 498v228q0 11 2.5 23t10 21.5t20.5 15.5t34 6h188q31 0 51.5 -14.5t20.5 -52.5v-227h-327z" />
    <glyph glyph-name="uniE603" unicode="&#xe603;" 
d="M512 812l-170 -170v68h-137v-205l-120 -120l24 -24l403 403l404 -403l24 24zM239 676h69v-68l-69 -69v137zM205 369v-410h239v239h137v-239h239v410l-308 307zM785 -7h-170v205v34h-34h-137h-34v-34v-205h-171v361l273 274l273 -274v-361z" />
    <glyph glyph-name="uniE604" unicode="&#xe604;" 
d="M505.5 13q-101.5 0 -187.5 50t-136.5 136.5t-50.5 187.5t50.5 187.5t136.5 136.5t187.5 50t187.5 -50t136 -136.5t50 -187.5t-50 -187.5t-136 -136.5t-187.5 -50zM505 733q-94 0 -173.5 -46t-126 -126t-46.5 -174t46.5 -174t126 -126t173.5 -46t174 46t126.5 126
t46.5 174t-46.5 174t-126.5 126t-174 46zM683 404h-161v160h-33v-160h-161v-34h161v-160h33v160h161v34z" />
    <glyph glyph-name="uniE609" unicode="&#xe609;" 
d="M742 330q-17 22 -44 22h-359v110q0 65 46 111t111.5 46t111.5 -46t46 -111v-39h44v39q0 83 -59 142t-142.5 59t-142.5 -59t-59 -142v-110q-27 0 -44 -22q-16 -20 -16 -48v-263q0 -29 17.5 -49.5t42.5 -20.5h403q25 0 42.5 20.5t17.5 49.5v263q0 28 -16 48zM714 19
q0 -11 -5 -18.5t-11 -7.5h-403q-6 0 -11 7.5t-5 18.5v263q0 11 5 18.5t11 7.5h403q6 0 11 -7.5t5 -18.5v-263z" />
    <glyph glyph-name="uniE60E" unicode="&#xe60e;" 
d="M959 313q-59 86 -152 123q41 28 66 73q29 52 29 112q0 93 -62.5 158.5t-150.5 65.5q-12 0 -21 -9t-9 -21.5t9 -21.5t21 -9q63 0 107.5 -47.5t44.5 -115t-44.5 -115.5t-107.5 -48q-12 0 -21 -8.5t-9 -21.5q0 -12 9 -21t21 -9q113 0 193.5 -85.5t80.5 -206.5q0 -12 8.5 -21
t21 -9t21.5 9t9 21q0 115 -64 207zM647 365q-48 34 -103 53q58 35 91 93.5t33 126.5q0 107 -75.5 182.5t-182 75.5t-182.5 -75.5t-76 -182.5q0 -74 40 -137q33 -52 86 -84q-56 -19 -105 -53q-52 -38 -91 -90q-82 -109 -82 -245q0 -13 9 -21.5t21.5 -8.5t21 8.5t8.5 21.5
q0 144 103 247q102 102 245 102q4 0 9 1l2 1q140 -3 239 -103q102 -103 102 -247q0 -13 9 -21.5t21.5 -8.5t21 8.5t8.5 21.5q0 136 -81 246q-39 51 -92 89zM410 836q82 0 140 -58t58 -140t-58 -140t-139.5 -58t-139.5 58t-58 140t58 140t139 58z" />
    <glyph glyph-name="uniE60F" unicode="&#xe60f;" 
d="M960 96l-279 125q42 32 70 89t38.5 107.5t10.5 94.5v160q0 52 -42 104.5t-109.5 86t-136.5 33.5t-136.5 -33.5t-109.5 -86t-42 -104.5v-160q0 -66 30.5 -150.5t90.5 -132.5l-281 -133q-7 -3 -17.5 -9t-28.5 -22.5t-18 -32.5v-96q0 -27 18.5 -45.5t45.5 -18.5h896
q27 0 45.5 18.5t18.5 45.5v96q0 11 -7 21.5t-15.5 17.5t-19.5 13.5t-15 8.5t-7 3v0zM40 -88v99q0 26 29 39l276 134q18 8 28 18t10 26q0 17 -5 25t-19 20q-48 38 -70.5 111t-22.5 135v168q0 35 37.5 74.5t95.5 67t113 27.5t114 -27t97 -67t38 -75v-168q0 -40 -6.5 -82.5
t-28 -93.5t-55.5 -77l-3 -3q-13 -10 -17 -16.5t-5 -21.5q-1 -28 39 -46l270 -122q1 0 2.5 -0.5t3.5 -1.5t4.5 -2.5t5 -3.5t5 -5t4 -7t3 -9.5t1.5 -12.5v-103h-944zM64 -64z" />
    <glyph glyph-name="uniE616" unicode="&#xe616;" 
d="M107 710h1v0h808v0h1q14 0 23 9t9 22.5t-9 23t-23 9.5h-1v-1v1h-808v-1v1h-1q-14 0 -23 -9.5t-9 -23t9 -22.5t23 -9zM1023 470q0 14 -3 30l-1 2q-7 33 -30 60l-38 76q-2 12 -11 20.5t-21 8.5h-1h-1h-807v0h-2q-11 0 -20 -7.5t-11 -18.5h-1l-39 -77q-25 -28 -33 -64v0
q-3 -15 -3 -30q0 -43 23 -78t61 -52v-476q0 -17 12.5 -29.5t30.5 -12.5h768q18 0 30.5 12.5t12.5 29.5v476q38 17 61 52t23 78zM838 100h-652q-15 0 -26 10t-11 23v195q37 1 68 20t49 50q19 -32 51.5 -51.5t71.5 -19.5t71.5 19.5t51.5 51.5q19 -32 51.5 -51.5t71.5 -19.5
t71.5 19.5t51.5 51.5q18 -31 49 -50t68 -20v-195q0 -13 -11 -23t-26 -10z" />
    <glyph glyph-name="uniE618" unicode="&#xe618;" 
d="M986 -13h-948q-7 0 -11 7q-2 2 -2 6t2 6l166 308q5 6 12 6h128q13 0 13 -13t-13 -13h-121l-152 -281h905l-153 294h-134q-12 0 -12 13t12 13h141q7 0 12 -7l166 -320q3 -4 0 -12q-4 -7 -11 -7zM512 128q-31 0 -84 85.5t-93.5 190.5t-40.5 159q0 90 64 154t154 64t154 -64
t64 -154q0 -54 -40.5 -159t-93.5 -190.5t-84 -85.5zM512 755q-80 0 -136 -56t-56 -136q0 -58 40.5 -158t86.5 -175.5t65 -75.5t65 75.5t86.5 175.5t40.5 158q0 80 -56 136t-136 56zM512 512q-32 0 -54.5 22.5t-22.5 54t22.5 54.5t54.5 23t54.5 -23t22.5 -54.5t-22.5 -54
t-54.5 -22.5zM512 640q-21 0 -36 -15t-15 -36t15 -36t36 -15t36 15t15 36t-15 36t-36 15z" />
    <glyph glyph-name="uniE619" unicode="&#xe619;" 
d="M506 697q106 0 196 -52.5t142 -142.5t52 -196t-52 -196t-142 -142t-196 -52t-196 52t-142.5 142t-52.5 196t52.5 196t142.5 142.5t196 52.5zM520 191q1 33 5 47q4 15 12 26q8 12 35 35q40 36 53.5 60.5t13.5 54.5q0 50 -39 85.5t-104 35.5q-62 0 -100 -33t-45 -96l56 -6
q8 46 31.5 68t58.5 22q36 0 61 -24t25 -56q0 -18 -8.5 -33t-37 -40t-39.5 -38q-15 -18 -22 -36q-9 -23 -9 -56v-16h53zM527 81v62h-63v-62h63z" />
    <glyph glyph-name="uniE61B" unicode="&#xe61b;" 
d="M514 802q-102 0 -195 -40t-160 -107t-107 -160t-40 -195t40 -195t107 -160t160 -107t195 -40t195 40t160.5 107t107 160t39.5 195t-39.5 195t-107 160t-160.5 107t-195 40zM514.5 760q93.5 0 178.5 -36.5t146.5 -98t98 -147t36.5 -178.5q0 -166 -106 -294q-92 38 -221 77
q-5 1 -6 4.5t-1 21.5q0 22 16 56q17 36 22 76q23 26 33 79q9 43 -1 67l-1 4q-2 8 0.5 38t6.5 56q4 23 -4 58.5t-32 65.5q-48 62 -141 68h-42q-92 -6 -141 -68q-23 -30 -31.5 -65.5t-4.5 -58.5q5 -26 7 -56t1 -37q-1 -2 -2 -5q-9 -24 -1 -67q11 -53 33 -79q5 -40 23 -76
q9 -20 9 -57q0 -17 -1 -21t-6 -5q-50 -15 -119 -39.5t-101 -38.5q-109 128 -109 296q0 93 36.5 178.5t98 147t147 98t179 36.5zM193 -29q98 40 203 71q12 4 20 11t11 17.5t4 17.5t1 20q0 47 -14 75q-16 34 -19 69q-1 9 -7 14q-16 14 -26 63q-6 30 -1 43q2 5 3 9q3 16 1 50
t-7 62q-3 14 3 40.5t24 49.5q37 47 109 52h40q72 -5 109 -52q18 -23 24.5 -49.5t3.5 -40.5q-5 -28 -7.5 -62t0.5 -50q1 -4 3 -9q5 -13 -1 -43q-9 -49 -25 -63q-7 -5 -7 -14q-3 -35 -20 -69q-20 -43 -20 -74q0 -13 1 -20t4 -17.5t11 -17.5t21 -11q107 -32 203 -70
q-64 -63 -147.5 -98t-176.5 -35q-92 0 -175 34.5t-146 96.5z" />
    <glyph glyph-name="uniE620" unicode="&#xe620;" 
d="M511 724q104 0 177.5 -72t73.5 -173q0 -37 -11 -71q-15 -33 -240 -492q-226 459 -241 492q-10 34 -10 71q0 101 73.5 173t177.5 72zM511 316q59 0 100.5 42t41.5 101t-41.5 100.5t-100.5 41.5t-101 -41.5t-42 -100.5t42 -101t101 -42zM511 746q-113 0 -193 -78.5
t-80 -188.5q0 -40 11 -78l1 -1q5 -12 70.5 -145.5t127.5 -260.5l63 -128q249 507 261 534v1q12 38 12 78q0 110 -80 188.5t-193 78.5zM511 338q-50 0 -85.5 35.5t-35.5 85t35.5 85t85.5 35.5t85 -35.5t35 -85t-35 -85t-85 -35.5z" />
    <glyph glyph-name="uniE623" unicode="&#xe623;" 
d="M777 58l-95 95q63 69 84 158.5t-3.5 178t-90.5 155.5q-51 50 -116 77t-136 27t-136 -27t-115 -77q-104 -104 -104 -252q0 -71 26.5 -136t77 -115t115.5 -77t136 -27q138 0 240 93l278 -278l22 22zM650 164q-95 -95 -229.5 -95t-229.5 95t-95 229.5t95 229.5t229.5 95
t229.5 -95q46 -47 70.5 -107.5t24.5 -122t-24.5 -122.5t-70.5 -107z" />
    <glyph glyph-name="uniE627" unicode="&#xe627;" 
d="M768 182q-52 0 -95.5 -28.5t-64.5 -74.5l-290 134q36 48 36 106.5t-37 107.5l286 143q20 -50 65 -81t100 -31q73 0 125 52t52 125t-52 125t-125 52t-125 -52t-52 -125q0 -7 2 -26l-304 -153q-50 41 -112 41q-73 0 -125 -52t-52 -125.5t52 -125.5t125 -52q62 0 112 41
l306 -141q-4 -20 -4 -37q0 -74 52 -126t125 -52t125 52t52 125.5t-52 125.5t-125 52zM768 773q57 0 97.5 -40.5t40.5 -97.5t-40.5 -97.5t-97.5 -40.5t-97.5 40.5t-40.5 97.5t40.5 97.5t97.5 40.5zM177 182q-57 0 -97.5 40.5t-40.5 97.5t40.5 97.5t97.5 40.5t97.5 -40.5
t40.5 -97.5t-40.5 -97.5t-97.5 -40.5zM768 -133q-57 0 -97.5 40.5t-40.5 97.5t40.5 97t97.5 40t97.5 -40t40.5 -97t-40.5 -97.5t-97.5 -40.5z" />
    <glyph glyph-name="uniE628" unicode="&#xe628;" 
d="M675 628h-372q-39 0 -66.5 -27.5t-27.5 -65.5v-372q0 -39 27.5 -66.5t66.5 -27.5h372q38 0 65.5 27.5t27.5 66.5v372q0 38 -27.5 65.5t-65.5 27.5zM721 194q0 -33 -22.5 -55.5t-54.5 -22.5h-310q-33 0 -55.5 22.5t-22.5 55.5v310q0 32 22.5 54.5t55.5 22.5h310
q32 0 55 -22.5t23 -54.5v-310h-1z" />
    <glyph glyph-name="uniE62A" unicode="&#xe62a;" horiz-adv-x="1025" 
d="M512 896q-139 0 -257 -68.5t-186.5 -186.5t-68.5 -257t68.5 -257t186.5 -186.5t257 -68.5q104 0 199 40.5t163.5 109t109 163.5t40.5 199t-40.5 199t-109 163.5t-163.5 109t-199 40.5zM512 -82q-95 0 -181 37t-148.5 99.5t-99.5 148.5t-37 181t37 181t99.5 148.5
t148.5 99.5t181 37t181.5 -37t149 -99.5t99.5 -148.5t37 -181t-37 -181t-99.5 -148.5t-149 -99.5t-181.5 -37zM535 646h-46v-239h-239v-46h239v-239h46v239h239v46h-239v239z" />
    <glyph glyph-name="uniE62B" unicode="&#xe62b;" 
d="M646 636q-59 0 -134 -90q-75 90 -134 90q-72 0 -122.5 -49t-50.5 -118q0 -25 9 -50.5t17 -39t24 -34.5q29 -40 90.5 -93.5t92.5 -76t52 -36.5q10 -7 22 -7t22 7q21 14 52 36.5t92.5 76t90.5 93.5q16 21 24 34.5t17 39t9 50.5q0 69 -50.5 118t-122.5 49z" />
    <glyph glyph-name="uniE62E" unicode="&#xe62e;" 
d="M301 711h421v-15h-421v15zM702 782q9 0 14.5 -6t5.5 -15v-693q0 -8 -5.5 -14t-14.5 -6h-380q-9 0 -14.5 6t-5.5 14v693q0 9 5.5 15t14.5 6h380zM702 796h-380q-15 0 -25 -10t-10 -25v-693q0 -14 10 -24.5t25 -10.5h380q15 0 25 10.5t10 24.5v693q0 15 -10 25t-25 10z
M302 228h420v-15h-420v15zM432 134h160v-14h-160v14z" />
    <glyph glyph-name="uniE634" unicode="&#xe634;" 
d="M675 628h-372q-39 0 -66.5 -27.5t-27.5 -65.5v-372q0 -39 27.5 -66.5t66.5 -27.5h372q38 0 65.5 27.5t27.5 66.5v372q0 38 -27.5 65.5t-65.5 27.5zM721 194q0 -33 -22.5 -55.5t-54.5 -22.5h-310q-33 0 -55.5 22.5t-22.5 55.5v310q0 32 22.5 54.5t55.5 22.5h310
q32 0 55 -22.5t23 -54.5v-310h-1zM607 461l-168 -167l-68 68q-7 7 -16.5 7t-16.5 -6.5t-7 -16.5t7 -17l85 -85q7 -6 16.5 -6t16.5 6l184 184q6 7 6 16.5t-6.5 16.5t-16 7t-16.5 -7z" />
    <glyph glyph-name="uniE658" unicode="&#xe658;" 
d="M512 156q60 0 102 42t42 102t-42 102t-102 42t-102 -42t-42 -102t42 -102t102 -42zM512 406q44 0 75 -31t31 -75t-31 -75t-75 -31t-75 31t-31 75t31 75t75 31zM52 250q1 -25 18 -46.5t50 -21.5h50q7 -21 17 -42l-35 -35q-16 -16 -19 -35.5t3 -34.5t16 -26l70 -70
q21 -20 49 -20q26 0 47 21l35 34q20 -10 42 -17v-49q0 -36 22 -52t46 -16h98q25 0 47 17t22 51v49q21 7 42 17l34 -34q21 -21 47 -21q29 0 50 21l69 69q11 11 17 26t2.5 34.5t-19.5 36.5l-34 34q10 21 17 42h49q30 0 48 19q20 20 20 50v98q0 25 -17 46.5t-51 21.5h-49
q-8 22 -18 42l35 35q21 21 21 47q0 29 -21 49l-69 69q-21 21 -50 21q-26 0 -47 -21l-35 -35q-20 10 -42 18v50q0 33 -21 50t-47 18h-98q-25 -1 -46.5 -18t-21.5 -50v-50q-21 -8 -42 -18l-35 36q-21 20 -47 20q-28 0 -49 -20l-70 -70q-10 -11 -16 -26t-3 -34.5t19 -35.5
l35 -35q-9 -20 -17 -42h-50q-33 0 -50 -21.5t-18 -46.5v-99zM120 378h78l5 14q9 33 25 61l7 13l-56 55q-20 20 0 42l69 69q11 10 23 10q10 0 20 -9l55 -56l13 7q29 16 61 25l14 4v79q0 28 29 29h98q30 -1 30 -29v-79l14 -4q32 -9 61 -25l13 -7l55 55q9 10 19 10q12 0 23 -10
l69 -69q10 -10 10 -22q0 -10 -10 -20l-45 -45l-10 -10l7 -13q16 -28 25 -61l4 -14h78q29 0 29 -29v-98q0 -30 -29 -30h-78l-4 -14q-9 -32 -25 -61l-7 -13l55 -54q20 -21 0 -43l-70 -69q0 -1 -2.5 -3t-8 -4.5t-11.5 -2.5q-10 0 -20 10q-11 12 -44 44l-10 11l-12 -7
q-29 -16 -62 -26l-14 -4v-77q0 -29 -30 -30h-98q-29 1 -29 30v77l-14 4q-33 10 -62 26l-12 7l-55 -55q-10 -10 -20 -10q-12 0 -22 10l-69 69q-21 22 -1 42l55 55l-6 13q-16 28 -26 61l-4 14h-78q-12 0 -19 6.5t-8.5 12t-2.5 11.5v97q2 30 30 30z" />
    <glyph glyph-name="uniE65C" unicode="&#xe65c;" 
d="M25 367q0 98 38 187t102.5 153.5t154 103t187.5 38.5t187.5 -38.5t154 -103t102.5 -153.5t38 -187t-38 -187.5t-102.5 -154t-154 -102.5t-187.5 -38t-187.5 38t-154 102.5t-102.5 154t-38 187.5zM326 577l-30 -30l181 -180l-181 -181l30 -30l181 181l181 -181l30 30
l-181 181l181 180l-30 30l-181 -180z" />
    <glyph glyph-name="uniE65E" unicode="&#xe65e;" 
d="M742.5 608q-9.5 10 -19.5 0l-205 -205l-204 205q-10 10 -19.5 0t-0.5 -19l205 -205l-205 -205q-9 -9 0 -19q7 -6 13.5 -6t12.5 6l205 205l205 -205q6 -6 12.5 -6t12.5 6q10 10 0 19l-217 205l204 205q10 9 0.5 19zM512 896q-138 0 -256 -69t-187 -187t-69 -256t69 -256
t187 -187t256 -69t256 69t187 187t69 256t-69 256t-187 187t-256 69zM512 -96q-129 0 -239.5 65t-175.5 175.5t-65 239.5t65 239.5t175.5 175.5t239.5 65t239.5 -65t175.5 -175.5t65 -239.5t-65 -239.5t-175.5 -175.5t-239.5 -65z" />
    <glyph glyph-name="uniE675" unicode="&#xe675;" 
d="M861 64h-698q-20 0 -34 14.5t-14 34.5v542q0 20 14 34.5t34 14.5h698q20 0 34 -14.5t14 -34.5v-542q0 -20 -14 -34.5t-34 -14.5zM163 678q-9 0 -15.5 -6.5t-6.5 -16.5v-542q0 -10 6.5 -16.5t15.5 -6.5h698q9 0 15.5 6.5t6.5 16.5v542q0 10 -6.5 16.5t-15.5 6.5h-698z
M163 667zM541 527h241v-24h-241v24zM541 527zM541 371h241v-24h-241v24zM541 371zM233 221h549v-24h-549v24zM233 221zM489 273h-262v25q0 36 20 65.5t54 44.5q-37 29 -37 81q0 40 26 69.5t62.5 29.5t62 -29t25.5 -70q0 -46 -33 -77q38 -14 60.5 -45t22.5 -69v-25h-1z
M252 298h213q0 32 -22 58t-55 34h-1q-6 0 -12 4.5t-6 12.5v4l1 2q2 4 13 12q12 8 22 26t10 37q0 30 -18.5 51.5t-44.5 21.5t-44.5 -21.5t-18.5 -51.5q0 -21 10 -39t26 -27l3 -1q11 -8 11 -17l1 -7l-7 -4q-1 -1 -4 -1h-1q-1 0 -2 -1l-2 -1h-4l-1 -1h-2q-30 -12 -47.5 -36.5
t-17.5 -54.5zM264 310z" />
    <glyph glyph-name="uniE67C" unicode="&#xe67c;" 
d="M512 284q-60 0 -102 42.5t-42 102t42 101.5t102 42t102 -42t42 -101.5t-42 -102t-102 -42.5zM512 540q-46 0 -79 -32.5t-33 -79t33 -79.5t79 -33t79 33t33 79.5t-33 79t-79 32.5zM512 -164q-33 0 -91 71.5t-111.5 168t-93.5 200t-40 162.5q0 88 45 163.5t122.5 119
t168.5 43.5t168.5 -43.5t122.5 -119t45 -163.5q0 -59 -40 -162.5t-93.5 -200t-111.5 -168t-91 -71.5zM512 732q-126 0 -215 -86t-89 -208q0 -63 40.5 -164t93 -189t102.5 -152.5t68 -64.5t68 64.5t102.5 152.5t93 189t40.5 164q0 122 -89 208t-215 86z" />
    <glyph glyph-name="uniE69F" unicode="&#xe69f;" horiz-adv-x="1025" 
d="M513 609q-69 0 -133 -20.5t-127.5 -63t-121.5 -94.5t-130 -129q5 -6 15 -17q42 -44 63.5 -66t60.5 -59t65 -55.5t65.5 -43.5t74 -37t78.5 -21t90 -9t92 10.5t83 25.5t79 42t70 48t66 56.5t57 55t53 54.5l12 12q-41 49 -77.5 87.5t-88.5 82.5t-102.5 73t-114.5 48.5
t-129 19.5zM513 28q-43 0 -83 8t-73 20t-69 34.5t-61.5 41t-61 52t-57.5 56t-60 61.5q66 70 120 117t111.5 84t115 54.5t118.5 17.5q70 0 138 -23t127.5 -65.5t105.5 -86t95 -100.5q-36 -37 -61 -61t-65 -60t-75.5 -59t-79 -45.5t-90.5 -34t-95 -11.5zM513 506
q-85 0 -145 -60t-60 -144.5t60 -144.5t145 -60t145 60t60 144.5t-60 144.5t-145 60zM512.5 131q-70.5 0 -120.5 50t-50 120.5t50 120.5t120.5 50t121 -50t50.5 -120.5t-50.5 -120.5t-121 -50zM512.5 421q-49.5 0 -84.5 -35t-35 -84.5t35 -84.5t84.5 -35t84.5 35t35 84.5
t-35 84.5t-84.5 35zM513 216q-35 0 -60 25t-25 60.5t25 60.5t60 25t60 -25t25 -60.5t-25 -60.5t-60 -25z" />
    <glyph glyph-name="uniE712" unicode="&#xe712;" 
d="M887 896h-750q-57 0 -97 -40t-40 -97v-750q0 -57 40 -97t97 -40h750q57 0 97 40t40 97v750q0 57 -40 97t-97 40zM816 558l-389 -392q0 -2 -2 -4t-2 -3q-10 -11 -27 -11t-27 11l-195 194q-10 11 -10 28t10 27t27 10t28 -10l164 -164l368 369q10 10 27.5 10t27.5 -10
q13 -11 13 -28t-13 -27z" />
    <glyph glyph-name="uniE738" unicode="&#xe738;" 
d="M889 896h-754q-54 0 -94.5 -40.5t-40.5 -94.5v-750q0 -57 40.5 -98t94.5 -41h750q57 0 96.5 40t39.5 95v754q2 54 -38 94.5t-94 40.5zM988 37q0 -52 -37 -88.5t-89 -36.5h-697q-52 0 -88.5 36.5t-36.5 88.5v694q0 52 36.5 88.5t88.5 36.5h694q52 0 88.5 -36.5t36.5 -88.5
v-694h4z" />
    <glyph glyph-name="uniE86C" unicode="&#xe86c;" 
d="M512.5 895q-151.5 0 -271 -94t-161.5 -242q-37 -22 -57.5 -63t-20.5 -92q0 -76 42.5 -126.5t114.5 -50.5q16 0 27.5 11.5t11.5 27.5v276q0 13 -8 23t-21 14q43 108 136.5 174t207 66t207 -66t136.5 -174q-12 -4 -20.5 -14t-8.5 -23v-276q0 -16 11.5 -27.5t27.5 -11.5
q10 0 26 2q-17 -96 -75 -166q-26 -31 -55 -52q-10 -7 -19 -11q-1 0 -2.5 -1t-2.5 -1h-73q-11 31 -42 51t-71 20q-49 0 -83.5 -29t-34.5 -69.5t34.5 -69.5t83.5 -29q40 0 71 20t42 51h77q10 0 25 8q13 6 27 16q36 25 66 61q77 93 90 225q35 23 54 62.5t19 88.5q0 51 -20.5 92
t-57.5 63q-42 148 -161.5 242t-271 94z" />
    <glyph glyph-name="uniE870" unicode="&#xe870;" 
d="M361 6v469q0 9 -6.5 15.5t-15.5 6.5t-15 -6.5t-6 -15.5v-469q0 -9 6 -15t15 -6t15.5 6t6.5 15zM531 6v469q0 9 -6 15.5t-15 6.5t-15 -6.5t-6 -15.5v-469q0 -9 6 -15t15 -6t15 6t6 15zM147 518q-16 0 -20 -16h-1v-581q0 -36 25 -61t60 -25h597q36 0 61 25t25 61v576
q0 8 -6.5 14.5t-15 6.5t-15 -6.5t-6.5 -14.5v-576q0 -18 -12.5 -30.5t-30.5 -12.5h-597q-17 0 -29.5 12.5t-12.5 30.5v576q0 8 -6.5 14.5t-15.5 6.5zM83 624h256q1 0 1 1q10 -1 17 6l79 79h148l79 -79q7 -7 17 -6q0 -1 1 -1h256q8 0 14.5 6.5t6.5 15.5t-6.5 15t-14.5 6h-246
l-79 79q-7 7 -16 6h-1h-171q-10 1 -16 -6l-79 -79h-246q-9 0 -15 -6t-6 -15t6 -15.5t15 -6.5zM702 6v469q0 9 -6.5 15.5t-15 6.5t-15 -6.5t-6.5 -15.5v-469q0 -9 6.5 -15t15 -6t15 6t6.5 15z" />
  </font>
</defs>
</svg>
